<?xml version="1.0" encoding="utf-8"?><svg id="Accounts_Payable_Management" data-name="Accounts Payable Management" xmlns="http://www.w3.org/2000/svg" width="497.76" height="496" viewBox="0 0 497.76 496">
  <path id="Path_1" data-name="Path 1" d="M344,304H296V64h48Z" transform="translate(-8 -8)" fill="#d9b673"/>
  <path id="Path_2" data-name="Path 2" d="M408,136H360V88h48Z" transform="translate(-8 -8)" fill="#d9b673"/>
  <path id="Path_3" data-name="Path 3" d="M505.76,504l-17.47-87.34A230.548,230.548,0,0,0,504,332.92V269.26a116.33,116.33,0,0,0-32-80.33V72a16,16,0,0,0-16-16H280a16,16,0,0,0-16,16V260.49a119.47,119.47,0,0,0-32-19.42V232a32,32,0,0,0-32-32H136a32,32,0,0,0-32,32v8.86a119.59,119.59,0,0,0-74,99.2L24.76,392H24A16,16,0,0,0,8,408a48.05,48.05,0,0,0,48,48H280a48.05,48.05,0,0,0,48-48,16,16,0,0,0-16-16h-.76l-5.19-51.94A120.462,120.462,0,0,0,299.73,312H355a128.46,128.46,0,0,0,10.58,85l10.05,20.11L358.24,504Zm-128-16,12.8-64h82.88l12.8,64ZM440,72h16V296H440ZM120,232a16,16,0,0,1,16-16h64a16,16,0,0,1,16,16v3.78A119.9,119.9,0,0,0,186.64,232H149.36A121,121,0,0,0,120,235.71ZM280,440H56a32,32,0,0,1-32-32H312A32,32,0,0,1,280,440Zm10.13-98.34,5,50.34H40.84l5-50.34A103.69,103.69,0,0,1,149.36,248h37.28A103.85,103.85,0,0,1,264,282.65V296a16,16,0,0,0,16,16h2.56a103.74,103.74,0,0,1,7.57,29.66ZM359.54,296H280V72H424V243a43.08,43.08,0,0,0-40-27,16,16,0,0,0-16,16v9.7a179.2,179.2,0,0,1-8.46,54.3ZM374,303.27a194.369,194.369,0,0,0,10-61.57V232a27.27,27.27,0,0,1,27.22,24.64l3.38,33.75A23.92,23.92,0,0,0,438.48,312H456a16,16,0,0,0,16-16V214.7a100.48,100.48,0,0,1,16,54.56v63.66a214.811,214.811,0,0,1-13.548,75.074L388.94,408l-9.06-18.14A112.48,112.48,0,0,1,374,303.27Z" transform="translate(-8 -8)" fill="#d9b673"/>
  <path id="Path_4" data-name="Path 4" d="M376,152h16v48H376Z" transform="translate(-8 -8)" fill="#d9b673"/>
  <path id="Path_5" data-name="Path 5" d="M179.78,72a27.61,27.61,0,0,0,24.84-15.35l2.53-5.07-14.31-7.16-2.54,5.07A11.77,11.77,0,0,1,168,44.22,20.24,20.24,0,0,1,188.22,24H192a24,24,0,0,1,24,24v2.74a50.79,50.79,0,0,1-20.22,40.43A29.6,29.6,0,0,0,184,114.74a29.29,29.29,0,0,0,16.29,26.35l7.28,3.64a15.25,15.25,0,0,1,4,24.42l-1.19,1.19,11.3,11.32,1.2-1.19a31.26,31.26,0,0,0-8.12-50.05l-7.29-3.64a13.4,13.4,0,0,1-7.44-12A13.56,13.56,0,0,1,205.38,104,66.85,66.85,0,0,0,232,50.74V48A40,40,0,0,0,192,8h-3.78A36.26,36.26,0,0,0,152,44.22,27.81,27.81,0,0,0,179.78,72Z" transform="translate(-8 -8)" fill="#d9b673"/>
  <path id="Path_6" data-name="Path 6" d="M64.2,97.05l13.91,7a17.89,17.89,0,0,1,0,32l-6.17,3.1a28.79,28.79,0,0,0-3.11,49.73l14.74,9.83,8.87-13.32L77.7,175.52a12.82,12.82,0,0,1,1.38-22.12l6.18-3.1a33.87,33.87,0,0,0,0-60.61l-13.91-7C61.88,78,56,68.48,56,57.25a26.6,26.6,0,0,1,10.6-21.2,60.63,60.63,0,0,1,36.15-12H112V8h-9.25A76.75,76.75,0,0,0,57,23.25,43,43,0,0,0,40,57.89,43.55,43.55,0,0,0,64.2,97.05Z" transform="translate(-8 -8)" fill="#d9b673"/>
  <path id="Path_7" data-name="Path 7" d="M109.49,50.2l6.09-3.05-7.16-14.31-6.08,3a25.92,25.92,0,0,0,3.39,47.78l11.74,3.91,5.07-15.16L110.79,68.5a9.93,9.93,0,0,1-1.3-18.3Z" transform="translate(-8 -8)" fill="#d9b673"/>
  <path id="Path_8" data-name="Path 8" d="M152,111.24a13.1,13.1,0,0,1-3.85,9.3L133.66,135A47,47,0,0,0,120,168h16a30.87,30.87,0,0,1,9-21.66l14.49-14.49A29.14,29.14,0,0,0,148.1,83.59l-9.54-3.17L133.5,95.58l9.5,3.18a13.16,13.16,0,0,1,9,12.48Z" transform="translate(-8 -8)" fill="#d9b673"/>
  <path id="Path_9" data-name="Path 9" d="M162.34,178.34l11.32,11.32,2.34-2.35a27.3,27.3,0,0,0,0-38.62l-2.34-2.35-11.32,11.32,2.34,2.34a11.31,11.31,0,0,1,0,16Z" transform="translate(-8 -8)" fill="#d9b673"/>
</svg>
