<?xml version="1.0" encoding="utf-8"?><svg id="Isolation_Mode" data-name="Isolation Mode" xmlns="http://www.w3.org/2000/svg" viewBox="0 0 507.16 512"><defs><style>.cls-1{fill:#d9b673;}.cls-2{fill:#131a40;}</style></defs><title>Remote Staffing</title><path class="cls-1" d="M509.19,154.53l-1-5.26A21.94,21.94,0,0,0,481,132.17l-22.6,6a22,22,0,0,0-16,25.36l.41,2.11a22,22,0,0,0,21.57,17.83,21.21,21.21,0,0,0,2.63-.16l23.2-2.81a22,22,0,0,0,18.92-25.92Zm-16,8.21a6.81,6.81,0,0,1-4.77,2.8l-23.19,2.81a7,7,0,0,1-7.66-5.58h0l-.4-2.11a7,7,0,0,1,5.05-8l22.59-5.95a7.39,7.39,0,0,1,1.79-.23,6.95,6.95,0,0,1,6.8,5.64l1,5.26A6.82,6.82,0,0,1,493.23,162.74Z" transform="translate(-2.42 0)"/><path class="cls-1" d="M462.35,93.58a22,22,0,0,0,3.43-31.91l-3.5-4.05a22,22,0,0,0-32.07-1.23l-16.6,16.45a22,22,0,0,0-1.15,30l1.41,1.63h0a22,22,0,0,0,29.8,3.2Zm-37.12,1h0L423.82,93a7,7,0,0,1,.37-9.47l16.59-16.45a6.88,6.88,0,0,1,4.88-2h.27a6.89,6.89,0,0,1,5,2.4l3.5,4a6.94,6.94,0,0,1-1.09,10.09l-18.68,14A7,7,0,0,1,425.23,94.6Z" transform="translate(-2.42 0)"/><path class="cls-1" d="M356.14,65.23l2,.71a21.8,21.8,0,0,0,7.16,1.21,22,22,0,0,0,20.25-13.34l9.16-21.49A22,22,0,0,0,381.75,3L376.7,1.21a22,22,0,0,0-28.4,15l-6.14,22.54A22,22,0,0,0,356.14,65.23Zm.51-22.56,6.14-22.55A7,7,0,0,1,369.48,15a7,7,0,0,1,2.29.39l5.05,1.76a6.95,6.95,0,0,1,4.11,9.28l-9.16,21.49a7,7,0,0,1-8.67,3.84h0l-2-.71a7,7,0,0,1-4.42-8.38Z" transform="translate(-2.42 0)"/><path class="cls-2" d="M383.79,158.08l-7.17-.55A640.55,640.55,0,0,0,255.27,40.37a28.45,28.45,0,0,0-35.57,1.57c-21.86,19.31-43.58,39.15-64.55,59a7.51,7.51,0,1,0,10.31,10.91c20.85-19.7,42.44-39.43,64.18-58.63a13.38,13.38,0,0,1,16.71-.75A625.61,625.61,0,0,1,378.26,184.35a13.36,13.36,0,0,1-.76,16.7c-55.38,62.71-114.45,123.4-175.62,180.47q-4.11-1.68-8.3-3.61c22.95-21.34,45.61-43.18,67.47-65,27.95-27.94,55.67-57,82.39-86.27a7.51,7.51,0,0,0-.6-10.71c-.44-.38-.8-.72-1.18-1.11a27.86,27.86,0,0,1,0-39.4,28.11,28.11,0,0,1,5.17-4.07,7.5,7.5,0,0,0,1.84-11.21A619.86,619.86,0,0,0,270.6,82a7.5,7.5,0,0,0-11.21,1.83A28.35,28.35,0,0,1,255.3,89a27.85,27.85,0,0,1-39.39,0c-.42-.42-.82-.86-1.21-1.29a7.52,7.52,0,0,0-10.61-.49c-29.4,26.83-58.43,54.54-86.26,82.38-25,25-50,51-74.27,77.46-.48-.74-1-1.47-1.41-2.2-1.09-1.73-2.13-3.45-3.13-5.14,33.77-36.61,69-72.71,104.89-107.36a7.51,7.51,0,0,0-10.43-10.8q-16.9,16.32-33.58,33.06c-17.12.92-34.44,2.07-51.53,3.42a42.24,42.24,0,0,0-38.6,37.57,1263.66,1263.66,0,0,0,0,272.19,42.24,42.24,0,0,0,38.6,37.57C104,509.8,160.14,512,216.18,512c44.5,0,89-1.39,133.16-4.16a7.5,7.5,0,1,0-.94-15,2121.78,2121.78,0,0,1-298.85-2.42,27.22,27.22,0,0,1-24.84-24.08h0c-2-22.64,23.15-63.72,64-104.65A7.51,7.51,0,0,0,78.11,351.1C51.93,377.32,32.35,403,21,425.29a1249.89,1249.89,0,0,1,0-187.21c.71,1.39,1.44,2.79,2.22,4.21,1.86,3.41,4,7,6.25,10.61,2.14,3.41,4.52,7,7.05,10.6A353.24,353.24,0,0,0,64,297.57L66,299.81l.58.63A460.61,460.61,0,0,0,122.7,351.6,360.12,360.12,0,0,0,177,386.54a239.35,239.35,0,0,0,23.86,10.72c4.37,1.67,8.77,3.17,13.08,4.47a7.61,7.61,0,0,0,4.3,0c28.38-8.48,60.48-26.25,92.83-51.38,7.5-5.82,15-12,22.18-18.39a451.05,451.05,0,0,0,35.2-34.69c19.1-21.07,33.59-41.25,42.75-59.2a1249.89,1249.89,0,0,1,0,187.21c-11.39-22.32-31-48-57.15-74.18a7.51,7.51,0,1,0-10.62,10.61c40.85,40.9,66,82,64,104.6a27.21,27.21,0,0,1-24.86,24.13l-4.39.34a7.51,7.51,0,0,0,.54,15l.57,0,4.48-.34a42.24,42.24,0,0,0,38.6-37.57,1263.66,1263.66,0,0,0,0-272.19,42.25,42.25,0,0,0-38.61-37.57Zm-334.24,15c11.46-.91,23-1.71,34.55-2.43q-26.68,27.19-52.47,55c-5.18-11.33-7.57-21.06-6.92-28.48A27.2,27.2,0,0,1,49.55,173.05Zm68,155.17q-8.22-6.9-16.13-14.22l.05-.06a10.78,10.78,0,0,1,18.4,7.62A10.68,10.68,0,0,1,117.59,328.22Zm11.67,9.46a25.77,25.77,0,0,0-1.9-34.35,25.81,25.81,0,0,0-36.46,0l-.3.3c-4.45-4.41-8.79-8.87-12.95-13.38l-.58-.62-1.95-2.13a349.2,349.2,0,0,1-22.81-27.73c24.89-27.13,50.48-53.85,76.13-79.51,26.06-26.06,53.17-52,80.65-77.22a42.87,42.87,0,0,0,56.83-3.38c.35-.35.69-.7,1-1.06a606.2,606.2,0,0,1,65.14,65.15c-.35.34-.7.67-1,1a42.89,42.89,0,0,0-3.38,56.84c-25.12,27.39-51.07,54.49-77.23,80.65-23,23-47,46.06-71.21,68.49a351.08,351.08,0,0,1-47.36-31.05c-.87-.67-1.74-1.34-2.6-2Zm228.06-50.49a431.55,431.55,0,0,1-34,33.52c-7,6.18-14.19,12.16-21.44,17.78-28.74,22.34-57,38.49-82.28,47,58.86-55.36,115.73-114,169.18-174.54a28.45,28.45,0,0,0,1.59-35.56l-.64-.84a27.25,27.25,0,0,1,17.76,22.61c1.66,19.57-17.54,54-50.14,90Z" transform="translate(-2.42 0)"/><path class="cls-1" d="M242,293.84c15.3-15.31,24.31-35.12,25.37-55.8,1.07-21-6.13-40.31-20.28-54.46-29-29-78.45-26.7-110.25,5.1-15.31,15.3-24.32,35.12-25.37,55.8-1.08,21,6.12,40.3,20.27,54.45,13.62,13.62,31.75,20.34,50.45,20.34,21.11,0,42.94-8.57,59.81-25.43Zm-115.54-48.6c.87-17,8.32-33.28,21-46,25.95-25.94,65.89-28.23,89-5.09,11.1,11.1,16.75,26.4,15.89,43.07-.86,17-8.32,33.28-21,46-14,13.95-31.94,21.06-49.19,21.06-14.84,0-29.13-5.26-39.83-16C131.27,277.21,125.63,261.91,126.48,245.24Z" transform="translate(-2.42 0)"/><path class="cls-1" d="M269.74,186.73a25.78,25.78,0,1,0-18.23-7.54A25.74,25.74,0,0,0,269.74,186.73Zm-7.62-33.39a10.77,10.77,0,1,1,0,15.23A10.71,10.71,0,0,1,262.12,153.34Z" transform="translate(-2.42 0)"/><path class="cls-1" d="M209.73,242.31c2.75,3.65,2.51,10.72-3.35,16.65-5.62,5.69-7.82,7.39-14.47,9.41a7.65,7.65,0,0,0-5.49,8.31,7.51,7.51,0,0,0,7.43,6.45,7.39,7.39,0,0,0,2.16-.32c7.13-2.14,11.35-4.52,15.56-8.1l1.49,1.49a7.5,7.5,0,0,0,10.48.13,7.76,7.76,0,0,0-.09-11l-1.7-1.7c6.9-10.82,5.62-22.89,0-30.39-6.9-9.14-18.84-10.94-30.43-4.58-6.74,3.71-14.37,7.65-19.76,8.81A3.2,3.2,0,0,1,168.2,236c-1.25-1.76-1.83-4.89.29-8.42a22.45,22.45,0,0,1,8.32-8.21,7.45,7.45,0,0,0,3.83-7.57l0-.23a7.38,7.38,0,0,0-10.82-5.43,34.83,34.83,0,0,0-3.43,2.12l-1-1a7.71,7.71,0,0,0-10.67-.39,7.51,7.51,0,0,0-.17,10.78l1.56,1.55-.42.66c-4.84,8-4.7,17.81.36,24.9a18.1,18.1,0,0,0,18.69,7.44c5.87-1.27,12.77-4.26,23.83-10.33,2.87-1.57,8.15-3.61,11.22.46Z" transform="translate(-2.42 0)"/></svg>