<?xml version="1.0" encoding="utf-8"?><svg xmlns="http://www.w3.org/2000/svg" width="510.912" height="512" viewBox="0 0 510.912 512">
  <g id="Finance_Controller_Services" data-name="Finance Controller Services" transform="translate(0.011)">
    <path id="Path_31" data-name="Path 31" d="M448.79,167.36H411.88V94.73a47.21,47.21,0,0,0-13-32.51L375,37.27c-20.24-20.85-22.79-26.74-34.85-32.6A47.19,47.19,0,0,0,319.73,0H145.53a47.1,47.1,0,0,0-47,47.05V300.79H88.56A27.13,27.13,0,0,0,69.29,347,27.06,27.06,0,0,0,62,371.51C3,377.5-20.43,450.41,22.68,490a68,68,0,0,0,49.05,18l133.85-.05a27.13,27.13,0,0,0,19.27-46.25,27,27,0,0,0,7.84-17.75h10.18v5.44A62.73,62.73,0,0,0,305.54,512H448.78a62.74,62.74,0,0,0,62.67-62.67V230a62.73,62.73,0,0,0-62.66-62.64Zm-64-96.58h0l.06.06h-40.3V28.44c31.75,33.39,38.87,40.92,40.2,42.34ZM88.56,316.88h117a11.06,11.06,0,1,1,0,22.11h-117a11.06,11.06,0,1,1,0-22.11Zm0,38.2h117a11.06,11.06,0,0,1,0,22.12H124.75a64.772,64.772,0,0,0-10.18-3.68,68.211,68.211,0,0,0-16.09-2.37H78.75a10.75,10.75,0,0,1-1.24-5.05,11.08,11.08,0,0,1,11.05-11.02Zm128.08,49.26a11.06,11.06,0,0,1-11.06,11.06h-45a67.69,67.69,0,0,0-13.65-22.12h58.66a11.08,11.08,0,0,1,11.05,11.06ZM49.43,389.91a69.28,69.28,0,0,0-12.67,16.24H27.39a53,53,0,0,1,22.04-16.24Zm-30.6,31.32H30.55a69.419,69.419,0,0,0-2.19,12.06H16a53.23,53.23,0,0,1,2.83-12.06Zm1.3,39.87a53.069,53.069,0,0,1-3.78-12.73H28.64c2.2,12.49,2.32,10.33,2.87,12.73Zm10,15.08H38.6a67.939,67.939,0,0,0,10.82,13.09,53.2,53.2,0,0,1-19.25-13.09Zm68.62,16.7a53.32,53.32,0,0,1-55.59-51c-2-47,54.07-74,89.39-41.58,34.86,31.93,13.67,90.63-33.76,92.58Zm106.79-1.07H140.67A68.9,68.9,0,0,0,158,469.69h47.63a11.06,11.06,0,0,1,0,22.12Zm11-47.91a11.07,11.07,0,0,1-11,9.71H163.5a68.92,68.92,0,0,0,1-22.12h41.11a11.06,11.06,0,0,1,10.94,12.41Zm26.32-16.09H228.35a26.341,26.341,0,0,0-3.5-4.36,27.1,27.1,0,0,0,0-38.21,27.09,27.09,0,0,0,0-38.2c16.91-17.05,4.82-46.25-19.27-46.25h-91V47.05a31,31,0,0,1,31-31H328.62v63a8,8,0,0,0,8.05,8h58.17c1.67,6.51.64,4.36,1,80.22h-90.3A62.73,62.73,0,0,0,242.87,230V427.81Zm253.5,21.52a47.64,47.64,0,0,1-47.58,47.59H305.54A47.65,47.65,0,0,1,258,449.33V230a47.64,47.64,0,0,1,47.59-47.58h143.2A47.63,47.63,0,0,1,496.37,230V449.33Z" transform="translate(-0.55)" fill="#d9b673"/>
    <path id="Path_32" data-name="Path 32" d="M448.25,199.54H306.07a25.31,25.31,0,0,0-25.31,25.31v27.6a25.32,25.32,0,0,0,25.31,25.32h27.36a7.54,7.54,0,1,0,0-15.08H306.07a10.26,10.26,0,0,1-10.23-10.24v-27.6a10.26,10.26,0,0,1,10.23-10.23H448.25a10.24,10.24,0,0,1,10.24,10.23v27.6a10.25,10.25,0,0,1-10.24,10.24H365.94a7.54,7.54,0,1,0,0,15.08h82.31a25.35,25.35,0,0,0,25.32-25.32v-27.6a25.34,25.34,0,0,0-25.32-25.31Z" transform="translate(-0.55)" fill="#d9b673"/>
    <path id="Path_33" data-name="Path 33" d="M322.31,358.43H296.54a15.8,15.8,0,0,0-15.78,15.78V400a15.8,15.8,0,0,0,15.78,15.78h25.77A15.79,15.79,0,0,0,338.09,400V374.21a15.79,15.79,0,0,0-15.78-15.78ZM323,400a.7.7,0,0,1-.7.7H296.54a.7.7,0,0,1-.7-.7V374.21a.7.7,0,0,1,.7-.7h25.77a.7.7,0,0,1,.7.7Z" transform="translate(-0.55)" fill="#d9b673"/>
    <path id="Path_34" data-name="Path 34" d="M458.6,291.07H432.84a15.79,15.79,0,0,0-15.78,15.78v25.76a15.79,15.79,0,0,0,15.78,15.78H458.6a15.79,15.79,0,0,0,15.78-15.78V306.85a15.8,15.8,0,0,0-15.78-15.78Zm.7,41.54a.7.7,0,0,1-.7.7H432.84a.7.7,0,0,1-.7-.7c.31-25.49-.66-26.46.7-26.46H458.6a.7.7,0,0,1,.7.7Z" transform="translate(-0.55)" fill="#d9b673"/>
    <path id="Path_35" data-name="Path 35" d="M322.31,291.07H296.54a15.8,15.8,0,0,0-15.78,15.78v25.76a15.8,15.8,0,0,0,15.78,15.78h25.77a15.79,15.79,0,0,0,15.78-15.78V306.85a15.79,15.79,0,0,0-15.78-15.78Zm.7,41.54a.7.7,0,0,1-.7.7H296.54a.7.7,0,0,1-.7-.7V306.85a.7.7,0,0,1,.7-.7h25.77a.7.7,0,0,1,.7.7Z" transform="translate(-0.55)" fill="#d9b673"/>
    <path id="Path_36" data-name="Path 36" d="M334.12,427.81a15.76,15.76,0,0,0-11.81-5.32H296.54a15.72,15.72,0,0,0-11.8,5.32c-5.48,6.14-3.62,12.84-4,16.08V464a15.81,15.81,0,0,0,15.78,15.79h25.77A15.8,15.8,0,0,0,338.09,464V443.89C337.73,440.72,339.57,434,334.12,427.81Zm-11.81,36.93c-25.46-.32-26.47.65-26.47-.71,0-27.27-.31-26.46.7-26.46h25.77c1.24,0,.47,1.72.7,6.32C323,443.9,323.67,464.74,322.31,464.74Z" transform="translate(-0.55)" fill="#d9b673"/>
    <path id="Path_37" data-name="Path 37" d="M454.6,358.43H436.84a19.81,19.81,0,0,0-19.79,19.78v80a21.63,21.63,0,0,0,21.6,21.61h14.14a21.62,21.62,0,0,0,21.59-21.61v-80a19.8,19.8,0,0,0-19.78-19.78Zm-1.81,106.31H438.65a6.53,6.53,0,0,1-6.51-6.53v-80a4.71,4.71,0,0,1,4.7-4.7H454.6a4.71,4.71,0,0,1,4.7,4.7v80h0a6.52,6.52,0,0,1-6.51,6.53Z" transform="translate(-0.55)" fill="#d9b673"/>
    <path id="Path_38" data-name="Path 38" d="M194.65,219c-9.2-3.38-15.84-5.82-15.84-14.34,0-7.76,5.16-11.7,15.32-11.7,10.8,0,13.7,4.75,17.51,4.75,4.13,0,6.42-4.39,6.42-7.42,0-6.29-10.24-9.4-19.4-10.22V174.4a7.15,7.15,0,0,0-14.29,0V181C171.84,184,165,192.63,165,205.44c0,17.55,12.92,22.41,23.3,26.31,10.17,3.82,18.2,6.84,18.2,18.45,0,9.58-5.32,14.44-15.82,14.44-15.37,0-15.52-10.37-21.38-10.37-3.63,0-6.55,4.06-6.55,7.43,0,5.94,8.85,13.75,21.66,15.77V283a7.15,7.15,0,0,0,14.29,0v-5.62c13.77-2.6,21.65-12.71,21.65-27.89C220.31,228.46,206.08,223.23,194.65,219Z" transform="translate(-0.55)" fill="#d9b673"/>
    <path id="Path_39" data-name="Path 39" d="M401,426.92a15.72,15.72,0,0,0-10.94-4.43H364.28a15.76,15.76,0,0,0-11.81,5.32c-5.46,6.15-3.61,12.84-4,16.08V464a15.8,15.8,0,0,0,15.78,15.79h25.77A15.79,15.79,0,0,0,405.82,464V438.26A15.68,15.68,0,0,0,401,426.92Zm-10.94,37.82c-25.45-.32-26.47.65-26.47-.71V438.26a.7.7,0,0,1,.7-.69h25.77a.69.69,0,0,1,.69.69c-.31,25.52.64,26.48-.7,26.48Z" transform="translate(-0.55)" fill="#d9b673"/>
    <path id="Path_40" data-name="Path 40" d="M390.05,291.07H364.28a15.8,15.8,0,0,0-15.78,15.78v25.76a15.79,15.79,0,0,0,15.78,15.78h25.77a15.619,15.619,0,0,0,5.74-1.08,15.82,15.82,0,0,0,10-14.7V306.85A15.8,15.8,0,0,0,390.05,291.07Zm0,42.24H364.28a.7.7,0,0,1-.7-.7V306.85c0-1.36.93-.4,26.47-.7a.69.69,0,0,1,.69.7v25.76h0a.69.69,0,0,1-.69.7Z" transform="translate(-0.55)" fill="#d9b673"/>
    <path id="Path_41" data-name="Path 41" d="M395.79,359.51a15.619,15.619,0,0,0-5.74-1.08H364.28a15.8,15.8,0,0,0-15.78,15.78V400a15.79,15.79,0,0,0,15.78,15.78h25.77A15.78,15.78,0,0,0,405.82,400V374.21a15.8,15.8,0,0,0-10.03-14.7ZM390.74,400a.69.69,0,0,1-.69.7H364.28a.7.7,0,0,1-.7-.7V374.21a.7.7,0,0,1,.7-.7h25.77a.69.69,0,0,1,.69.7Z" transform="translate(-0.55)" fill="#d9b673"/>
    <path id="Path_42" data-name="Path 42" d="M346.53,103H327.59a7.54,7.54,0,1,0,0,15.08h18.94a7.54,7.54,0,1,0,0-15.08Z" transform="translate(-0.55)" fill="#d9b673"/>
    <path id="Path_43" data-name="Path 43" d="M297.42,103H163.71a7.54,7.54,0,0,0,0,15.08H297.43a7.54,7.54,0,1,0,0-15.08Z" transform="translate(-0.55)" fill="#d9b673"/>
    <path id="Path_44" data-name="Path 44" d="M187.68,140.47h-24a7.54,7.54,0,1,0,0,15.08h24a7.54,7.54,0,1,0,0-15.08Z" transform="translate(-0.55)" fill="#d9b673"/>
    <path id="Path_45" data-name="Path 45" d="M346.53,140.47H217.84a7.54,7.54,0,1,0,0,15.08H346.53a7.54,7.54,0,1,0,0-15.08Z" transform="translate(-0.55)" fill="#d9b673"/>
    <path id="Path_46" data-name="Path 46" d="M92.23,425.16c0-1.9.7-2.44,1.35-2.8,2-1.12,6.68-1.45,10.94.74a8.62,8.62,0,0,0,4.08,1.24c7.43,0,13.32-13.82-4.45-16.88V407a7.64,7.64,0,1,0-15.28,0v1.45c-7.44,2.7-11.66,8.84-11.66,17.17,0,12.86,9.35,16.37,16.17,18.93,6.51,2.45,8.76,3.52,8.76,7.95,0,2.76-.75,5.32-6.16,5.32-7.88,0-6.93-6.23-12.83-6.23-4.17,0-7.29,4.13-7.29,7.81,0,5.23,5.43,10.19,13,12.19v.58a7.64,7.64,0,1,0,15.28,0v-.78c8.2-2.63,13-9.69,13-19.35C117.16,429.12,92.23,432.56,92.23,425.16Z" transform="translate(-0.55)" fill="#d9b673"/>
  </g>
</svg>
