<?xml version="1.0" encoding="utf-8"?><svg id="Payroll_Services" data-name="Payroll Services" xmlns="http://www.w3.org/2000/svg" width="512.146" height="512" viewBox="0 0 512.146 512">
  <path id="Path_55" data-name="Path 55" d="M106,80a10,10,0,0,0,10-10V50h20a10,10,0,0,0,0-20H116V10a10,10,0,0,0-20,0V30H76a10,10,0,0,0,0,20H96V70A10,10,0,0,0,106,80Z" fill="#d9b673"/>
  <path id="Path_56" data-name="Path 56" d="M472,260a10,10,0,0,0,10-10V230h20a10,10,0,0,0,0-20H482V190a10,10,0,0,0-20,0v20H442a10,10,0,0,0,0,20h20v20A10,10,0,0,0,472,260Z" fill="#d9b673"/>
  <path id="Path_57" data-name="Path 57" d="M156,130A130,130,0,1,0,286,0,130.144,130.144,0,0,0,156,130Zm20,0A110.14,110.14,0,0,1,276,20.46V61.27A40,40,0,0,0,286,140a20,20,0,1,1-20,20,10,10,0,1,0-20,0,40.07,40.07,0,0,0,30,38.74v40.8A110.14,110.14,0,0,1,176,130Zm220,0A110.14,110.14,0,0,1,296,239.54v-40.8A40,40,0,0,0,286,120a20,20,0,1,1,20-20,10,10,0,0,0,20,0,40.06,40.06,0,0,0-30-38.73V20.46A110.14,110.14,0,0,1,396,130Z" fill="#d9b673"/>
  <path id="Path_58" data-name="Path 58" d="M447,331.13,361.54,402h-4.93A40,40,0,0,0,322,342H224.21c-8.67-8.48-33.71-30-64.21-30-22.72,0-42.39,11.93-54.54,21.52A40.05,40.05,0,0,0,70,312H10A10,10,0,0,0,0,322V502a10,10,0,0,0,10,10h90a10,10,0,0,0,10-10V483.73l44,7.08a10,10,0,0,0,3.18-19.74L110,463.48V356.09c7-6.71,27.16-24.09,50-24.09,28.15,0,52.32,26.42,52.55,26.67A10,10,0,0,0,220,362H322a20,20,0,0,1,0,40H235a10,10,0,0,0,0,20H365.14a10,10,0,0,0,6.39-2.31l88-72.92a20.14,20.14,0,0,1,25,31.56L375.3,463.72A122.9,122.9,0,0,1,297,492c-15.21,0-22.94-2.42-51-6.62a10,10,0,1,0-3.18,19.75C270.32,509.2,279.56,512,297,512a142.87,142.87,0,0,0,91-32.79L497,394a40.145,40.145,0,0,0-50-62.82ZM90,492H20V332H70a20,20,0,0,1,20,20Z" fill="#d9b673"/>
</svg>
