<?xml version="1.0" encoding="utf-8"?><svg id="Restaurant_Accounting_Analysis_Reporting_Services" data-name="Restaurant Accounting &amp; Analysis Reporting Services" xmlns="http://www.w3.org/2000/svg" width="480" height="480" viewBox="0 0 480 480">
  <path id="Path_59" data-name="Path 59" d="M339.9,161.78l-5.13-16.91a36.73,36.73,0,0,0-69.54,0l-5.13,16.91a94.85,94.85,0,0,0-2.65,44,41.37,41.37,0,0,0,21.31,28.84L273,363.2a25.35,25.35,0,0,0,6.4,19.7,28,28,0,0,0,39.48,1.77q.92-.85,1.77-1.77a25.05,25.05,0,0,0,6.4-19.16L321.27,234.6a41.37,41.37,0,0,0,21.28-28.82,94.85,94.85,0,0,0-2.65-44ZM326.79,203a25.33,25.33,0,0,1-16.6,19.11A8,8,0,0,0,305,230l6.1,135a9.28,9.28,0,0,1-2.4,7.25,12.37,12.37,0,0,1-17.4,0,9.65,9.65,0,0,1-2.35-7.78L295,230a8,8,0,0,0-5.17-7.85A25.33,25.33,0,0,1,273.21,203a78.85,78.85,0,0,1,2.2-36.53l5.13-16.91a20.75,20.75,0,0,1,38.92,0l5.13,16.91a79,79,0,0,1,2.2,36.53Z" fill="#d9b673"/>
  <path id="Path_60" data-name="Path 60" d="M216,120a8,8,0,0,0-8,8v68.69l-21.66,21.65A8,8,0,0,0,184,224.4l7,140a10.9,10.9,0,0,1-3,8.15,11.26,11.26,0,0,1-15.93.07l-.07-.07a10.87,10.87,0,0,1-3-8.15l7.05-140a8,8,0,0,0-2.34-6.06L152,196.69V128a8,8,0,0,0-16,0v72a8,8,0,0,0,2.34,5.66l21.49,21.49L153,363.62a27.032,27.032,0,1,0,54,2.63,22.906,22.906,0,0,0,0-2.62l-6.82-136.48,21.49-21.49A8,8,0,0,0,224,200V128A8,8,0,0,0,216,120Z" fill="#d9b673"/>
  <path id="Path_61" data-name="Path 61" d="M168,120a8,8,0,0,0-8,8v64a8,8,0,0,0,16,0V128A8,8,0,0,0,168,120Z" fill="#d9b673"/>
  <path id="Path_62" data-name="Path 62" d="M192,120a8,8,0,0,0-8,8v64a8,8,0,0,0,16,0V128A8,8,0,0,0,192,120Z" fill="#d9b673"/>
  <path id="Path_63" data-name="Path 63" d="M240,0C107.45,0,0,107.45,0,240S107.45,480,240,480,480,372.55,480,240,372.49.15,240,0Zm0,464C116.29,464,16,363.71,16,240S116.29,16,240,16,464,116.29,464,240,363.65,463.86,240,464Z" fill="#d9b673"/>
  <path id="Path_64" data-name="Path 64" d="M266,390.17a8,8,0,0,0-8.74-7.18h-.31a147.822,147.822,0,0,1-33.9,0,8,8,0,1,0-1.87,15.89,161.937,161.937,0,0,0,37.6,0,8,8,0,0,0,7.22-8.71Z" fill="#d9b673"/>
  <path id="Path_65" data-name="Path 65" d="M362.4,136.91a8,8,0,0,0-11.27-1h0a8,8,0,0,0-1,11.27A144,144,0,0,1,341.65,342a8,8,0,0,0,11.29,11.34,160,160,0,0,0,9.46-216.43Z" fill="#d9b673"/>
  <path id="Path_66" data-name="Path 66" d="M186.39,105.74Z" fill="#d9b673"/>
  <path id="Path_67" data-name="Path 67" d="M277.74,84.47a161.39,161.39,0,0,0-94.17,5.79,8.007,8.007,0,0,0,5.61,15A145.35,145.35,0,0,1,274,100a8,8,0,1,0,3.76-15.551Z" fill="#d9b673"/>
  <path id="Path_68" data-name="Path 68" d="M138,341.6a144,144,0,0,1-14.46-186.3,8,8,0,0,0-12.79-9.62l-.14.19a160,160,0,0,0,16.06,207.06A8.012,8.012,0,1,0,138,341.6Z" fill="#d9b673"/>
</svg>
