<?xml version="1.0" encoding="utf-8"?><svg xmlns="http://www.w3.org/2000/svg" width="511.996" height="512" viewBox="0 0 511.996 512">
  <g id="Tax_Return_Preparation_Services" data-name="Tax Return Preparation Services" transform="translate(0.01)">
    <path id="Path_69" data-name="Path 69" d="M325.88,158.05l-.43-.07a10,10,0,1,0-3.17,19.74l.35.06a10.179,10.179,0,0,0,1.64.14,10,10,0,0,0,1.61-19.87Z" transform="translate(-0.01)" fill="#d9b673"/>
    <path id="Path_70" data-name="Path 70" d="M501.81,284.62a29.91,29.91,0,0,0-42.24,0,10,10,0,1,0,14.141,14.141,9.9,9.9,0,0,1,14,0,14.86,14.86,0,0,1,0,21,21.05,21.05,0,0,1-29.76,0h0c.07-1.92.12-3.85.12-5.78a158.37,158.37,0,0,0-92.87-144,10,10,0,0,0-8.25,18.21,138.05,138.05,0,0,1,17.71,241.9,10,10,0,0,0-4.59,8.41V486a6,6,0,0,1-6,6H316a6,6,0,0,1-6-6V466.3a14.38,14.38,0,0,0-14.37-14.36H192.37A14.37,14.37,0,0,0,178,466.3V486a6,6,0,0,1-6,6H124a6,6,0,0,1-6-6V438.47a10,10,0,0,0-4.59-8.41A138,138,0,0,1,55,350.86a10,10,0,0,0-11-7.24,10.239,10.239,0,0,0-1.48.32H33a13,13,0,0,1-13-13V296.9a13,13,0,0,1,13-13h9.71a10.261,10.261,0,0,0,1.34.27A10,10,0,0,0,55,277,138.12,138.12,0,0,1,178,176.29a10,10,0,0,0-1.43-19.95,157.5,157.5,0,0,0-27.91,4.56A59.89,59.89,0,0,0,90.2,113.67H86.4a10,10,0,0,0-10,10v78.45a157.49,157.49,0,0,0-38.34,61.82H33a33,33,0,0,0-33,33V331a33,33,0,0,0,33,33h5.1A157.91,157.91,0,0,0,98,443.81V486a26,26,0,0,0,26,26h48a26,26,0,0,0,26-26V471.94h92V486a26,26,0,0,0,26,26h48a26,26,0,0,0,26-26V443.81A157.4,157.4,0,0,0,455.5,342.1a41.11,41.11,0,0,0,46.31-8.22,34.87,34.87,0,0,0,0-49.26ZM96.43,134.15a39.89,39.89,0,0,1,33.09,33A158.3,158.3,0,0,0,96.43,185.2Z" transform="translate(-0.01)" fill="#d9b673"/>
    <path id="Path_71" data-name="Path 71" d="M120.3,249.06a10,10,0,1,0,2.93,7.07,10,10,0,0,0-2.93-7.07Z" transform="translate(-0.01)" fill="#d9b673"/>
    <path id="Path_72" data-name="Path 72" d="M304.29,213H190.73a10,10,0,0,0,0,20H304.29a10,10,0,1,0,0-20Z" transform="translate(-0.01)" fill="#d9b673"/>
    <path id="Path_73" data-name="Path 73" d="M247.51,86.59a53,53,0,1,0,53,53A53,53,0,0,0,247.51,86.59Zm0,86a33,33,0,1,1,33-33,33,33,0,0,1-33,33Z" transform="translate(-0.01)" fill="#d9b673"/>
    <path id="Path_74" data-name="Path 74" d="M247.49,0a10,10,0,0,0-10,10V53.14a10,10,0,1,0,20,0V10A10,10,0,0,0,247.49,0Z" transform="translate(-0.01)" fill="#d9b673"/>
    <path id="Path_75" data-name="Path 75" d="M337.69,38.68a10,10,0,0,0-14.14,0L297.22,65a10,10,0,1,0,14.14,14.15l26.33-26.34a10,10,0,0,0,0-14.13Z" transform="translate(-0.01)" fill="#d9b673"/>
    <path id="Path_76" data-name="Path 76" d="M197.8,65,171.46,38.63a10,10,0,1,0-14.141,14.141L183.66,79.11A10,10,0,1,0,197.8,65Z" transform="translate(-0.01)" fill="#d9b673"/>
    <path id="Path_77" data-name="Path 77" d="M173.78,307.73H139a10,10,0,0,0,0,20h7.39v53.95a10,10,0,0,0,20,0V327.73h7.4a10,10,0,1,0,0-20Z" transform="translate(-0.01)" fill="#d9b673"/>
    <path id="Path_78" data-name="Path 78" d="M268,377.84l-26.45-63.48a10,10,0,0,0-18.46,0l-26.45,63.48a10,10,0,1,0,18.461,7.69l1.529-3.67H248l1.53,3.67A10,10,0,0,0,268,377.84Zm-43-16,7.35-17.65,7.36,17.65Z" transform="translate(-0.01)" fill="#d9b673"/>
    <path id="Path_79" data-name="Path 79" d="M335.12,349.72l17.26-26.55a10,10,0,1,0-16.76-10.9l-12.43,19.1-12.43-19.1A10,10,0,1,0,294,323.17l17.26,26.55L294,376.27a10,10,0,0,0,16.76,10.9l12.43-19.11,12.43,19.11a10,10,0,1,0,16.76-10.9Z" transform="translate(-0.01)" fill="#d9b673"/>
  </g>
</svg>
